# xmcd CD database file
#
# Track frame offsets:
#	150
#	19845
#	41760
#	62620
#	84934
#	99862
#	113672
#	128477
#	154407
#	165895
#	191026
#	213863
#	231530
#	242213
#	253572
#	266718
#	281763
#
# Disc length: 4010 seconds
#
# Revision: 0
# Processed by: cddbd v1.5.2PL0 Copyright (c) Steve Scherf et al.
# Submitted via: CDex 1.51
#
DISCID=e30fa811
DTITLE=Katie Bull - The Story, So Far
DYEAR=2007
DGENRE=Jazz
TTITLE0=Which?
TTITLE1=A Song For Hudson's Heart
TTITLE2=For All We Know
TTITLE3=Twisted
TTITLE4=Half Full
TTITLE5=Next Generation Doodlin'
TTITLE6=Paleontology
TTITLE7=I Should've Noticed
TTITLE8=Go Ahead
TTITLE9=Topanga Canyon
TTITLE10=There Will Never Be Another You
TTITLE11=Jack
TTITLE12=Wake Up Time
TTITLE13=Dream Cycle 1
TTITLE14=Dream Cycle 2
TTITLE15=Dream Cycle 3
TTITLE16=Dream Cycle 4
EXTD=YEAR: 2007
EXTT0=
EXTT1=
EXTT2=
EXTT3=
EXTT4=
EXTT5=
EXTT6=
EXTT7=
EXTT8=
EXTT9=
EXTT10=
EXTT11=
EXTT12=
EXTT13=
EXTT14=
EXTT15=
EXTT16=
PLAYORDER=
